<svg width="500" height="208" viewBox="0 0 500 208" fill="none" xmlns="http://www.w3.org/2000/svg">
<path d="M152.42 67.68C150.647 67.68 149.107 67.0733 147.8 65.86C146.587 64.5533 145.98 63.0133 145.98 61.24C145.98 59.4667 146.587 57.9733 147.8 56.76C149.107 55.4533 150.647 54.8 152.42 54.8H212.34C214.113 54.8 215.607 55.4533 216.82 56.76C218.127 57.9733 218.78 59.4667 218.78 61.24C218.78 63.0133 218.127 64.5533 216.82 65.86C215.607 67.0733 214.113 67.68 212.34 67.68H191.34C190.5 67.68 190.08 68.1 190.08 68.94V149.3C190.08 151.447 189.333 153.267 187.84 154.76C186.347 156.253 184.527 157 182.38 157C180.233 157 178.413 156.253 176.92 154.76C175.427 153.267 174.68 151.447 174.68 149.3V68.94C174.68 68.1 174.26 67.68 173.42 67.68H152.42ZM262.43 114.02L232.33 61.66C231.49 60.1667 231.537 58.6733 232.47 57.18C233.404 55.5933 234.71 54.8 236.39 54.8H238.49C241.01 54.8 243.297 55.4533 245.35 56.76C247.497 57.9733 249.084 59.6533 250.11 61.8L271.25 102.26C271.25 102.353 271.297 102.4 271.39 102.4C271.484 102.4 271.53 102.353 271.53 102.26L292.67 61.8C293.79 59.6533 295.377 57.9733 297.43 56.76C299.577 55.4533 301.864 54.8 304.29 54.8H305.83C307.604 54.8 308.957 55.5933 309.89 57.18C310.824 58.6733 310.824 60.1667 309.89 61.66L279.79 114.02C279.324 114.767 279.09 115.513 279.09 116.26V149.02C279.09 151.167 278.344 153.033 276.85 154.62C275.357 156.207 273.49 157 271.25 157H270.97C268.824 157 266.957 156.207 265.37 154.62C263.784 153.033 262.99 151.167 262.99 149.02V116.26C262.99 115.42 262.804 114.673 262.43 114.02ZM340.017 67.96V101.7C340.017 102.54 340.437 102.96 341.277 102.96H348.417C368.203 102.96 378.097 96.24 378.097 82.8C378.097 77.1067 375.95 72.86 371.657 70.06C367.457 67.1667 360.643 65.72 351.217 65.72C347.67 65.72 344.31 66 341.137 66.56C340.39 66.7467 340.017 67.2133 340.017 67.96ZM337.777 154.76C336.283 156.253 334.463 157 332.317 157C330.17 157 328.35 156.253 326.857 154.76C325.363 153.267 324.617 151.447 324.617 149.3V63.48C324.617 61.1467 325.363 59.14 326.857 57.46C328.35 55.6867 330.263 54.7067 332.597 54.52C339.503 53.7733 346.177 53.4 352.617 53.4C366.057 53.4 376.183 55.8733 382.997 60.82C389.81 65.7667 393.217 72.6267 393.217 81.4C393.217 88.4933 391.397 94.56 387.757 99.6C384.21 104.547 379.31 108 373.057 109.96C372.963 109.96 372.917 110.007 372.917 110.1C372.917 110.287 372.963 110.38 373.057 110.38C377.07 113.087 380.757 118.593 384.117 126.9L393.077 149.58C393.823 151.353 393.637 153.033 392.517 154.62C391.397 156.207 389.903 157 388.037 157C385.61 157 383.417 156.347 381.457 155.04C379.497 153.64 378.097 151.82 377.257 149.58L368.437 126.9C366.477 121.86 364.283 118.64 361.857 117.24C359.523 115.747 355.043 115 348.417 115H341.277C340.437 115 340.017 115.42 340.017 116.26V149.3C340.017 151.447 339.27 153.267 337.777 154.76ZM470.699 76.08C465.566 69.36 458.239 66 448.719 66C439.199 66 431.826 69.36 426.599 76.08C421.466 82.7067 418.899 92.6467 418.899 105.9C418.899 119.153 421.466 129.14 426.599 135.86C431.826 142.487 439.199 145.8 448.719 145.8C458.239 145.8 465.566 142.487 470.699 135.86C475.926 129.14 478.539 119.153 478.539 105.9C478.539 92.6467 475.926 82.7067 470.699 76.08ZM481.899 144.54C473.779 153.78 462.719 158.4 448.719 158.4C434.719 158.4 423.612 153.78 415.399 144.54C407.279 135.3 403.219 122.42 403.219 105.9C403.219 89.38 407.279 76.5 415.399 67.26C423.612 58.02 434.719 53.4 448.719 53.4C462.719 53.4 473.779 58.02 481.899 67.26C490.112 76.5 494.219 89.38 494.219 105.9C494.219 122.42 490.112 135.3 481.899 144.54Z" fill="black"/>
<path d="M55.4646 76.5273C54.5772 64.0453 68.463 56.0283 78.8291 63.0378L136.845 102.268C148.305 110.017 144.058 127.829 130.334 129.574L109.869 132.175C105.876 132.683 102.255 134.774 99.8195 137.977L87.3339 154.4C78.9611 165.413 61.4118 160.185 60.4308 146.386L55.4646 76.5273Z" fill="black"/>
</svg>
